<?xml version="1.0" encoding="UTF-8"?> <svg xmlns="http://www.w3.org/2000/svg" viewBox="0 0 288.41 64.51"><g id="Capa_2" data-name="Capa 2"><g id="Capa_1-2" data-name="Capa 1"><path d="M224.51,22.52V0h12.61V63.37H225.75V58.2a4,4,0,0,0-.55.47c-5.69,7.3-16.32,6.94-22.34,3.23-5.36-3.31-8.35-8.25-9.64-14.28-1.59-7.41-.94-14.57,3-21.19a18.71,18.71,0,0,1,21.41-8.29A16.66,16.66,0,0,1,224.51,22.52ZM205,41.05a14.76,14.76,0,0,0,2.09,8.09,9.17,9.17,0,0,0,15.48.1,14.13,14.13,0,0,0,2-6.56c.29-3.62-.08-7.11-2.11-10.25a9.13,9.13,0,0,0-15.34,0A14.92,14.92,0,0,0,205,41.05Z" style="fill:#fff"></path><path d="M93,44.68H60.79a10,10,0,0,0,9.32,9.41c3.93.31,7.28-.69,9.66-4.05a1.16,1.16,0,0,1,.78-.43c3.87,0,7.75,0,11.83,0-.21.65-.33,1.17-.53,1.66-3,7.32-8.48,11.56-16.2,12.86a25.4,25.4,0,0,1-13.34-1.21A20,20,0,0,1,50,50.19C47.44,43,47.65,35.77,51.25,28.94c3.82-7.24,10-11,18.15-11.47,5.23-.31,10.21.62,14.59,3.69,5.59,3.91,8.25,9.53,8.94,16.13A72.61,72.61,0,0,1,93,44.68ZM80.69,35.92c-.61-5.39-4.94-8.77-10.64-8.42-4.72.3-9,4.28-9,8.42Z" style="fill:#fff"></path><path d="M288.33,44.66H256.19c-.08,4,3.59,8.35,7.77,9.17,4.37.86,8.28.15,11.12-3.7a1.21,1.21,0,0,1,.75-.49c3.9,0,7.81,0,11.89,0-.26.75-.44,1.35-.68,1.92-3.43,8-9.68,12.05-18.17,12.83A25,25,0,0,1,258,63a19.46,19.46,0,0,1-11.79-10.6c-3.52-7.94-3.56-16,.48-23.7,3.77-7.21,10.08-10.81,18.14-11.28a22.42,22.42,0,0,1,14.47,3.73c5.66,3.92,8.28,9.59,9,16.23C288.53,39.73,288.33,42.1,288.33,44.66Zm-32-8.77H276a9.48,9.48,0,0,0-9.84-8.4A9.64,9.64,0,0,0,256.32,35.89Z" style="fill:#fff"></path><path d="M165.1,64.45c-9.93,0-18.12-5.42-21.36-14.2-2.83-7.69-2.45-15.35,1.75-22.42,4.48-7.55,11.62-10.57,20.18-10.36s15.2,3.88,19.25,11.53a24.92,24.92,0,0,1,2.35,16.79c-1.61,8.29-6.22,14.24-14.2,17.35A20.45,20.45,0,0,1,165.1,64.45ZM154.41,40.76l-.31.09a44.49,44.49,0,0,0,1.75,6.65A9.23,9.23,0,0,0,165,53.41a9.13,9.13,0,0,0,8.91-5.94,16.59,16.59,0,0,0,0-13.18c-3-7.22-11.69-7.43-15.75-3.44C155.4,33.58,154.5,37,154.41,40.76Z" style="fill:#fff"></path><path d="M12.54,63.43H0V18.48H11.73v4.93c.21-.07.35-.07.39-.14a13.56,13.56,0,0,1,9.1-5.49c4.3-.74,8.54-.52,12.48,1.61C38.29,21.87,40.49,26,41.35,31a27.94,27.94,0,0,1,.44,4.65c.05,8.92,0,17.83,0,26.75,0,.32,0,.63,0,1H29.11V62c0-7.24,0-14.48,0-21.72a56.86,56.86,0,0,0-.43-6c-.58-4.83-4.6-7-9.23-6a8.25,8.25,0,0,0-6.6,7.33,27.14,27.14,0,0,0-.26,3.82c0,7.48,0,15,0,22.44Z" style="fill:#fff"></path><path d="M140.48,63.47c-4.63,0-9,0-13.42,0-.34,0-.8-.43-1-.78-2.6-4.59-5.17-9.19-7.75-13.79-.11-.21-.25-.4-.46-.75-1,1.79-2,3.48-3,5.19-1.79,3.16-3.54,6.35-5.35,9.5a1.38,1.38,0,0,1-1,.64c-4.32,0-8.63,0-13,0-.07,0-.13-.07-.34-.17l1-1.6c4.14-6.74,8.25-13.5,12.44-20.21a2.12,2.12,0,0,0-.07-2.65c-4.06-6.46-8-13-12-19.46-.16-.26-.29-.54-.53-1h3.44c3.24,0,6.48,0,9.72,0a1.37,1.37,0,0,1,1.39.84c2.21,4,4.46,7.93,6.7,11.89.15.28.33.54.62,1,.3-.48.54-.85.76-1.24,2.12-3.8,4.25-7.6,6.34-11.42a1.7,1.7,0,0,1,1.75-1.06c4.23.05,8.46,0,12.94,0-1,1.65-1.9,3.13-2.81,4.6q-5,8.16-10.1,16.3a1.29,1.29,0,0,0,0,1.59c4.42,7.18,8.79,14.39,13.17,21.58C140.07,62.72,140.21,63,140.48,63.47Z" style="fill:#fff"></path></g></g></svg> 