<?xml version="1.0" encoding="utf-8"?>
<svg xmlns="http://www.w3.org/2000/svg" viewBox="738.8329 153.9137 307.4012 68.8125" width="307.401px" height="68.8125px" preserveAspectRatio="none"><g id="object-1" transform="matrix(1, 0, 0, 1, -5.684341886080802e-14, 2.842170943040401e-14)"><g fill="#ffffff" fill-opacity="1" transform="matrix(1, 0, 0, 1, 605.861206, 104.465851)"><g transform="translate(128.690498, 116.838473)"><g><path d="M 23.390625 -35.609375 C 21.898438 -37.515625 20.257812 -39.742188 18.46875 -42.296875 L 18.390625 -42.296875 L 18.5625 -14.640625 C 18.5625 -11.304688 18.441406 -8.628906 18.203125 -6.609375 C 20.109375 -6.785156 22.34375 -6.875 24.90625 -6.875 L 24.90625 0 L 4.546875 0 L 4.546875 -5.890625 C 6.160156 -5.953125 7.378906 -6.144531 8.203125 -6.46875 C 9.035156 -6.800781 9.691406 -7.5 10.171875 -8.5625 C 10.648438 -9.632812 10.890625 -11.332031 10.890625 -13.65625 L 10.703125 -47.84375 C 10.703125 -51.820312 10.820312 -54.5 11.0625 -55.875 L 4.28125 -55.609375 L 4.28125 -62.46875 L 18.296875 -62.46875 L 45.609375 -28.03125 C 48.109375 -24.75 50.191406 -21.921875 51.859375 -19.546875 L 51.9375 -19.546875 L 51.9375 -47.84375 C 51.9375 -51.707031 52.03125 -54.382812 52.21875 -55.875 L 45.515625 -55.609375 L 45.515625 -62.46875 L 65.859375 -62.46875 L 65.859375 -56.578125 C 64.253906 -56.523438 63.035156 -56.332031 62.203125 -56 C 61.367188 -55.675781 60.710938 -54.976562 60.234375 -53.90625 C 59.765625 -52.832031 59.53125 -51.132812 59.53125 -48.8125 L 59.53125 0.890625 L 51.9375 0.890625 Z M 23.390625 -35.609375 "/></g></g></g><g fill="#ffffff" fill-opacity="1" transform="matrix(1, 0, 0, 1, 605.861206, 104.465851)"><g transform="translate(195.364962, 116.838473)"><g><path d="M 24.8125 1.421875 C 20.46875 1.421875 16.628906 0.457031 13.296875 -1.46875 C 9.960938 -3.40625 7.375 -6.15625 5.53125 -9.71875 C 3.6875 -13.289062 2.765625 -17.457031 2.765625 -22.21875 C 2.765625 -26.382812 3.703125 -30.296875 5.578125 -33.953125 C 7.453125 -37.617188 10.082031 -40.550781 13.46875 -42.75 C 16.863281 -44.945312 20.734375 -46.046875 25.078125 -46.046875 C 30.847656 -46.046875 35.648438 -44.347656 39.484375 -40.953125 C 43.328125 -37.566406 45.21875 -31.921875 45.15625 -24.015625 L 15.890625 -23.46875 C 15.890625 -18.238281 16.882812 -14.101562 18.875 -11.0625 C 20.863281 -8.03125 24.0625 -6.515625 28.46875 -6.515625 C 30.550781 -6.515625 32.78125 -7.050781 35.15625 -8.125 C 37.539062 -9.195312 39.6875 -10.890625 41.59375 -13.203125 L 45.609375 -9.453125 C 40.546875 -2.203125 33.613281 1.421875 24.8125 1.421875 Z M 32.84375 -29.71875 C 32.664062 -36.445312 30.226562 -39.8125 25.53125 -39.8125 C 22.96875 -39.8125 20.925781 -38.898438 19.40625 -37.078125 C 17.894531 -35.265625 16.898438 -32.8125 16.421875 -29.71875 Z M 32.84375 -29.71875 "/></g></g></g><g fill="#ffffff" fill-opacity="1" transform="matrix(1, 0, 0, 1, 605.861206, 104.465851)"><g transform="translate(243.384864, 116.838473)"><g><path d="M 3.5625 -5.71875 C 4.695312 -6.1875 5.769531 -6.867188 6.78125 -7.765625 C 7.789062 -8.660156 8.984375 -9.910156 10.359375 -11.515625 L 18.125 -20.4375 L 9.375 -30.703125 C 9.195312 -30.878906 8.421875 -31.828125 7.046875 -33.546875 C 5.679688 -35.273438 4.757812 -36.765625 4.28125 -38.015625 L 1.875 -37.84375 L 1.875 -44.625 L 21.59375 -44.625 L 21.59375 -38.90625 C 20.164062 -38.851562 19.453125 -38.378906 19.453125 -37.484375 C 19.453125 -36.585938 20.078125 -35.425781 21.328125 -34 L 25.4375 -29.1875 L 25.53125 -29.1875 L 28.921875 -33.296875 C 29.160156 -33.523438 29.722656 -34.175781 30.609375 -35.25 C 31.503906 -36.320312 32.398438 -37.273438 33.296875 -38.109375 L 33.296875 -38.203125 L 28.921875 -37.84375 L 28.921875 -44.625 L 44.625 -44.625 L 44.625 -38.90625 C 41.289062 -37.476562 38.316406 -35.097656 35.703125 -31.765625 L 29.71875 -24.453125 L 40.078125 -12.40625 C 42.160156 -9.96875 43.585938 -8.035156 44.359375 -6.609375 L 47.390625 -6.78125 L 47.390625 0 L 26.328125 0 L 26.328125 -5.71875 C 28.347656 -5.769531 29.359375 -6.300781 29.359375 -7.3125 C 29.359375 -8.03125 28.851562 -8.953125 27.84375 -10.078125 L 22.484375 -15.703125 L 22.40625 -15.703125 L 18.296875 -10.703125 C 17.816406 -10.109375 17.144531 -9.335938 16.28125 -8.390625 C 15.425781 -7.441406 14.757812 -6.816406 14.28125 -6.515625 L 14.28125 -6.421875 L 18.390625 -6.78125 L 18.390625 0 L 3.5625 0 Z M 3.5625 -5.71875 "/></g></g></g><g fill="#ffffff" fill-opacity="1" transform="matrix(1, 0, 0, 1, 605.861206, 104.465851)"><g transform="translate(291.047735, 116.838473)"><g><path d="M 25.53125 1.421875 C 21.1875 1.421875 17.285156 0.5 13.828125 -1.34375 C 10.378906 -3.1875 7.671875 -5.832031 5.703125 -9.28125 C 3.742188 -12.726562 2.765625 -16.742188 2.765625 -21.328125 C 2.765625 -26.148438 3.773438 -30.4375 5.796875 -34.1875 C 7.816406 -37.9375 10.535156 -40.847656 13.953125 -42.921875 C 17.378906 -45.003906 21.144531 -46.046875 25.25 -46.046875 C 29.539062 -46.046875 33.378906 -45.125 36.765625 -43.28125 C 40.160156 -41.4375 42.835938 -38.773438 44.796875 -35.296875 C 46.765625 -31.816406 47.75 -27.753906 47.75 -23.109375 C 47.75 -18.171875 46.8125 -13.859375 44.9375 -10.171875 C 43.0625 -6.484375 40.441406 -3.628906 37.078125 -1.609375 C 33.722656 0.410156 29.875 1.421875 25.53125 1.421875 Z M 25.703125 -4.90625 C 28.972656 -4.90625 31.265625 -6.421875 32.578125 -9.453125 C 33.890625 -12.492188 34.546875 -16.304688 34.546875 -20.890625 C 34.546875 -26.003906 33.800781 -30.4375 32.3125 -34.1875 C 30.820312 -37.9375 28.46875 -39.8125 25.25 -39.8125 C 21.976562 -39.8125 19.597656 -38.265625 18.109375 -35.171875 C 16.628906 -32.078125 15.890625 -28.265625 15.890625 -23.734375 C 15.890625 -18.554688 16.691406 -14.125 18.296875 -10.4375 C 19.898438 -6.75 22.367188 -4.90625 25.703125 -4.90625 Z M 25.703125 -4.90625 "/></g></g></g><g fill="#ffffff" fill-opacity="1" transform="matrix(1, 0, 0, 1, 605.861206, 104.465851)"><g transform="translate(341.566807, 116.838473)"><g><path d="M 20.890625 1.421875 C 17.316406 1.421875 14.175781 0.5 11.46875 -1.34375 C 8.757812 -3.1875 6.644531 -5.816406 5.125 -9.234375 C 3.613281 -12.660156 2.859375 -16.632812 2.859375 -21.15625 C 2.859375 -25.914062 3.78125 -30.179688 5.625 -33.953125 C 7.46875 -37.734375 10.066406 -40.691406 13.421875 -42.828125 C 16.785156 -44.972656 20.640625 -46.046875 24.984375 -46.046875 C 27.304688 -46.046875 29.957031 -45.515625 32.9375 -44.453125 L 32.9375 -50.34375 C 32.9375 -53.195312 33.054688 -55.8125 33.296875 -58.1875 C 31.328125 -58.007812 29.210938 -57.921875 26.953125 -57.921875 L 26.953125 -64.703125 C 30.703125 -64.703125 33.734375 -64.96875 36.046875 -65.5 C 38.367188 -66.039062 39.921875 -66.671875 40.703125 -67.390625 L 45.515625 -67.390625 L 45.515625 -14.375 C 45.515625 -11.507812 45.394531 -8.890625 45.15625 -6.515625 C 47.125 -6.691406 49.0625 -6.78125 50.96875 -6.78125 L 50.96875 0 L 34 0 L 33.5625 -4.109375 L 33.46875 -4.109375 C 29.957031 -0.421875 25.765625 1.421875 20.890625 1.421875 Z M 25.53125 -6.6875 C 27.007812 -6.6875 28.40625 -7.070312 29.71875 -7.84375 C 31.03125 -8.625 32.101562 -9.671875 32.9375 -10.984375 L 32.9375 -37.75 C 32.28125 -38.226562 31.351562 -38.628906 30.15625 -38.953125 C 28.96875 -39.285156 27.78125 -39.453125 26.59375 -39.453125 C 22.789062 -39.390625 20.066406 -37.75 18.421875 -34.53125 C 16.785156 -31.320312 15.96875 -27.304688 15.96875 -22.484375 C 15.96875 -18.203125 16.753906 -14.5 18.328125 -11.375 C 19.910156 -8.25 22.3125 -6.6875 25.53125 -6.6875 Z M 25.53125 -6.6875 "/></g></g></g><g fill="#ffffff" fill-opacity="1" transform="matrix(1, 0, 0, 1, 605.861206, 104.465851)"><g transform="translate(394.763589, 116.838473)"><g><path d="M 24.8125 1.421875 C 20.46875 1.421875 16.628906 0.457031 13.296875 -1.46875 C 9.960938 -3.40625 7.375 -6.15625 5.53125 -9.71875 C 3.6875 -13.289062 2.765625 -17.457031 2.765625 -22.21875 C 2.765625 -26.382812 3.703125 -30.296875 5.578125 -33.953125 C 7.453125 -37.617188 10.082031 -40.550781 13.46875 -42.75 C 16.863281 -44.945312 20.734375 -46.046875 25.078125 -46.046875 C 30.847656 -46.046875 35.648438 -44.347656 39.484375 -40.953125 C 43.328125 -37.566406 45.21875 -31.921875 45.15625 -24.015625 L 15.890625 -23.46875 C 15.890625 -18.238281 16.882812 -14.101562 18.875 -11.0625 C 20.863281 -8.03125 24.0625 -6.515625 28.46875 -6.515625 C 30.550781 -6.515625 32.78125 -7.050781 35.15625 -8.125 C 37.539062 -9.195312 39.6875 -10.890625 41.59375 -13.203125 L 45.609375 -9.453125 C 40.546875 -2.203125 33.613281 1.421875 24.8125 1.421875 Z M 32.84375 -29.71875 C 32.664062 -36.445312 30.226562 -39.8125 25.53125 -39.8125 C 22.96875 -39.8125 20.925781 -38.898438 19.40625 -37.078125 C 17.894531 -35.265625 16.898438 -32.8125 16.421875 -29.71875 Z M 32.84375 -29.71875 "/></g></g></g></g></svg>